<svg xmlns="http://www.w3.org/2000/svg" viewBox="0 0 30 20" width="30" height="20" role="img" aria-label="United States">
  <!-- stripes -->
  <rect width="30" height="20" fill="#B22234"/>
  <g fill="#FFFFFF">
    <rect y="1.538" width="30" height="1.538"/>
    <rect y="4.615" width="30" height="1.538"/>
    <rect y="7.692" width="30" height="1.538"/>
    <rect y="10.769" width="30" height="1.538"/>
    <rect y="13.846" width="30" height="1.538"/>
    <rect y="16.923" width="30" height="1.538"/>
  </g>
  <!-- canton -->
  <rect width="12" height="10.769" fill="#3C3B6E"/>
  <!-- simplified stars -->
  <g fill="#FFFFFF">
    <circle cx="2" cy="2" r="0.55"/>
    <circle cx="4" cy="2" r="0.55"/>
    <circle cx="6" cy="2" r="0.55"/>
    <circle cx="8" cy="2" r="0.55"/>
    <circle cx="10" cy="2" r="0.55"/>

    <circle cx="3" cy="3.8" r="0.55"/>
    <circle cx="5" cy="3.8" r="0.55"/>
    <circle cx="7" cy="3.8" r="0.55"/>
    <circle cx="9" cy="3.8" r="0.55"/>

    <circle cx="2" cy="5.6" r="0.55"/>
    <circle cx="4" cy="5.6" r="0.55"/>
    <circle cx="6" cy="5.6" r="0.55"/>
    <circle cx="8" cy="5.6" r="0.55"/>
    <circle cx="10" cy="5.6" r="0.55"/>

    <circle cx="3" cy="7.4" r="0.55"/>
    <circle cx="5" cy="7.4" r="0.55"/>
    <circle cx="7" cy="7.4" r="0.55"/>
    <circle cx="9" cy="7.4" r="0.55"/>

    <circle cx="2" cy="9.2" r="0.55"/>
    <circle cx="4" cy="9.2" r="0.55"/>
    <circle cx="6" cy="9.2" r="0.55"/>
    <circle cx="8" cy="9.2" r="0.55"/>
    <circle cx="10" cy="9.2" r="0.55"/>
  </g>
</svg>
